<svg xmlns="http://www.w3.org/2000/svg" width="24" height="24" viewBox="0 0 24 24">
  <g id="vuesax_bulk_cardano-_ada_" data-name="vuesax/bulk/cardano-(ada)" transform="translate(-352 -229)">
    <g id="cardano-_ada_" data-name="cardano-(ada)">
      <path id="BG_1" data-name="BG 1" d="M0,0H24V24H0Z" transform="translate(352 229)" fill="none"/>
      <g id="Group" opacity="0.6">
        <path id="Vector" d="M2,1A1,1,0,1,1,1,0,1,1,0,0,1,2,1Z" transform="translate(368.15 237)" fill="#FFFFFFFF" opacity="0.6"/>
        <path id="Vector-2" data-name="Vector" d="M2,1A1,1,0,1,1,1,0,1,1,0,0,1,2,1Z" transform="translate(368.15 243)" fill="#FFFFFFFF" opacity="0.6"/>
        <path id="Vector-3" data-name="Vector" d="M2,1A1,1,0,1,1,1,0,1,1,0,0,1,2,1Z" transform="translate(370.75 240)" fill="#FFFFFFFF" opacity="0.6"/>
        <path id="Vector-4" data-name="Vector" d="M2,1A1,1,0,1,1,1,0,1,1,0,0,1,2,1Z" transform="translate(357.8 237)" fill="#FFFFFFFF" opacity="0.6"/>
        <path id="Vector-5" data-name="Vector" d="M2,1A1,1,0,1,1,1,0,1,1,0,0,1,2,1Z" transform="translate(357.8 243)" fill="#FFFFFFFF" opacity="0.6"/>
        <path id="Vector-6" data-name="Vector" d="M2,1A1,1,0,1,1,1,0,1,1,0,0,1,2,1Z" transform="translate(355.2 240)" fill="#FFFFFFFF" opacity="0.6"/>
        <path id="Vector-7" data-name="Vector" d="M2,1A1,1,0,1,1,1,0,1,1,0,0,1,2,1Z" transform="translate(366.9 233.2)" fill="#FFFFFFFF" opacity="0.6"/>
        <path id="Vector-8" data-name="Vector" d="M2,1A1,1,0,1,1,1,0,1,1,0,0,1,2,1Z" transform="translate(359.1 233.2)" fill="#FFFFFFFF" opacity="0.6"/>
        <path id="Vector-9" data-name="Vector" d="M2,1A1,1,0,1,1,1,0,1,1,0,0,1,2,1Z" transform="translate(363.05 234)" fill="#FFFFFFFF" opacity="0.6"/>
        <path id="Vector-10" data-name="Vector" d="M2,1A1,1,0,1,1,1,0,1,1,0,0,1,2,1Z" transform="translate(366.9 247)" fill="#FFFFFFFF" opacity="0.6"/>
        <path id="Vector-11" data-name="Vector" d="M2,1A1,1,0,1,1,1,0,1,1,0,0,1,2,1Z" transform="translate(359.1 247)" fill="#FFFFFFFF" opacity="0.6"/>
        <path id="Vector-12" data-name="Vector" d="M2,1A1,1,0,1,1,1,0,1,1,0,0,1,2,1Z" transform="translate(363.05 246.2)" fill="#FFFFFFFF" opacity="0.6"/>
      </g>
      <g id="Group-2" data-name="Group">
        <path id="Vector-13" data-name="Vector" d="M2.5,1.25A1.25,1.25,0,1,1,1.25,0,1.25,1.25,0,0,1,2.5,1.25Z" transform="translate(364.5 236.75)" fill="#FFFFFFFF"/>
        <path id="Vector-14" data-name="Vector" d="M2.5,1.25A1.25,1.25,0,1,1,1.25,0,1.25,1.25,0,0,1,2.5,1.25Z" transform="translate(361 236.75)" fill="#FFFFFFFF"/>
        <path id="Vector-15" data-name="Vector" d="M2.5,1.25A1.25,1.25,0,1,1,1.25,0,1.25,1.25,0,0,1,2.5,1.25Z" transform="translate(366.25 239.75)" fill="#FFFFFFFF"/>
        <path id="Vector-16" data-name="Vector" d="M2.5,1.25A1.25,1.25,0,1,1,1.25,0,1.25,1.25,0,0,1,2.5,1.25Z" transform="translate(359.25 239.75)" fill="#FFFFFFFF"/>
        <path id="Vector-17" data-name="Vector" d="M2.5,1.25A1.25,1.25,0,1,1,1.25,0,1.25,1.25,0,0,1,2.5,1.25Z" transform="translate(361 242.75)" fill="#FFFFFFFF"/>
        <path id="Vector-18" data-name="Vector" d="M2.5,1.25A1.25,1.25,0,1,1,1.25,0,1.25,1.25,0,0,1,2.5,1.25Z" transform="translate(364.5 242.75)" fill="#FFFFFFFF"/>
      </g>
      <g id="Group-3" data-name="Group" opacity="0.4">
        <path id="Vector-19" data-name="Vector" d="M.88,1.75A.875.875,0,1,1,.88,0a.875.875,0,1,1,0,1.75Z" transform="translate(363.12 230.58)" fill="#FFFFFFFF" opacity="0.4"/>
      </g>
      <g id="Group-4" data-name="Group" opacity="0.4">
        <path id="Vector-20" data-name="Vector" d="M.76,1.5A.758.758,0,0,1,0,.75.755.755,0,0,1,.75,0a.764.764,0,0,1,.76.75A.749.749,0,0,1,.76,1.5Z" transform="translate(368.49 231.1)" fill="#FFFFFFFF" opacity="0.4"/>
      </g>
      <g id="Group-5" data-name="Group" opacity="0.4">
        <path id="Vector-21" data-name="Vector" d="M.75,1.5A.75.75,0,0,1,.75,0H.76a.755.755,0,0,1,.75.75A.758.758,0,0,1,.75,1.5Z" transform="translate(358 231.1)" fill="#FFFFFFFF" opacity="0.4"/>
      </g>
      <g id="Group-6" data-name="Group" opacity="0.4">
        <path id="Vector-22" data-name="Vector" d="M.88,1.76A.875.875,0,0,1,0,.88.875.875,0,0,1,.88,0a.875.875,0,0,1,.88.88A.875.875,0,0,1,.88,1.76Z" transform="translate(363.12 249.62)" fill="#FFFFFFFF" opacity="0.4"/>
      </g>
      <g id="Group-7" data-name="Group" opacity="0.4">
        <path id="Vector-23" data-name="Vector" d="M.76,1.5A.758.758,0,0,1,0,.75.755.755,0,0,1,.75,0a.764.764,0,0,1,.76.75A.749.749,0,0,1,.76,1.5Z" transform="translate(368.49 249.35)" fill="#FFFFFFFF" opacity="0.4"/>
      </g>
      <g id="Group-8" data-name="Group" opacity="0.4">
        <path id="Vector-24" data-name="Vector" d="M.75,1.5A.75.75,0,0,1,.75,0H.76a.755.755,0,0,1,.75.75A.758.758,0,0,1,.75,1.5Z" transform="translate(358 249.35)" fill="#FFFFFFFF" opacity="0.4"/>
      </g>
      <g id="Group-9" data-name="Group" opacity="0.4">
        <path id="Vector-25" data-name="Vector" d="M.88,1.76A.879.879,0,0,1,0,.89V.88A.881.881,0,0,1,.88,0a.867.867,0,0,1,.87.88A.873.873,0,0,1,.88,1.76Z" transform="translate(352.67 240.12)" fill="#FFFFFFFF" opacity="0.4"/>
      </g>
      <g id="Group-10" data-name="Group" opacity="0.4">
        <path id="Vector-26" data-name="Vector" d="M.75,1.51A.755.755,0,0,1,0,.76V.75A.755.755,0,0,1,.75,0,.755.755,0,0,1,1.5.75.764.764,0,0,1,.75,1.51Z" transform="translate(355 245.24)" fill="#FFFFFFFF" opacity="0.4"/>
      </g>
      <g id="Group-11" data-name="Group" opacity="0.4">
        <path id="Vector-27" data-name="Vector" d="M.75,1.5A.755.755,0,0,1,0,.75.755.755,0,0,1,.75,0,.747.747,0,0,1,1.5.74V.75A.755.755,0,0,1,.75,1.5Z" transform="translate(355 235.26)" fill="#FFFFFFFF" opacity="0.4"/>
      </g>
      <g id="Group-12" data-name="Group" opacity="0.4">
        <path id="Vector-28" data-name="Vector" d="M.88,1.76A.879.879,0,0,1,0,.89V.88a.88.88,0,1,1,.88.88Z" transform="translate(373.62 240.12)" fill="#FFFFFFFF" opacity="0.4"/>
      </g>
      <g id="Group-13" data-name="Group" opacity="0.4">
        <path id="Vector-29" data-name="Vector" d="M.75,1.51A.749.749,0,0,1,0,.76V.75A.755.755,0,0,1,.75,0,.755.755,0,0,1,1.5.75.764.764,0,0,1,.75,1.51Z" transform="translate(371.55 245.24)" fill="#FFFFFFFF" opacity="0.4"/>
      </g>
      <g id="Group-14" data-name="Group" opacity="0.4">
        <path id="Vector-30" data-name="Vector" d="M.75,1.5A.755.755,0,0,1,0,.75.755.755,0,0,1,.75,0,.747.747,0,0,1,1.5.74V.75A.755.755,0,0,1,.75,1.5Z" transform="translate(371.55 235.26)" fill="#FFFFFFFF" opacity="0.4"/>
      </g>
      <path id="Vector-31" data-name="Vector" d="M0,0H24V24H0Z" transform="translate(352 229)" fill="none" opacity="0"/>
    </g>
  </g>
</svg>
